<?xml version="1.0" encoding="UTF-8" standalone="no"?>
<!-- Created with Inkscape (http://www.inkscape.org/) -->

<svg
   version="1.1"
   id="svg2"
   xml:space="preserve"
   width="106.66667"
   height="106.66667"
   viewBox="0 0 106.66667 106.66667"
   sodipodi:docname="로고_카카오.ai"
   xmlns:inkscape="http://www.inkscape.org/namespaces/inkscape"
   xmlns:sodipodi="http://sodipodi.sourceforge.net/DTD/sodipodi-0.dtd"
   xmlns="http://www.w3.org/2000/svg"
   xmlns:svg="http://www.w3.org/2000/svg"><defs
     id="defs6"><clipPath
       clipPathUnits="userSpaceOnUse"
       id="clipPath16"><path
         d="M 0,80 H 80 V 0 H 0 Z"
         id="path14" /></clipPath></defs><sodipodi:namedview
     id="namedview4"
     pagecolor="#ffffff"
     bordercolor="#666666"
     borderopacity="1.0"
     inkscape:pageshadow="2"
     inkscape:pageopacity="0.0"
     inkscape:pagecheckerboard="0" /><g
     id="g8"
     inkscape:groupmode="layer"
     inkscape:label="로고_카카오"
     transform="matrix(1.3333333,0,0,-1.3333333,0,106.66667)"><g
       id="g10"><g
         id="g12"
         clip-path="url(#clipPath16)"><g
           id="g18"
           transform="translate(40,65.4244)"><path
             d="m 0,0 c -15.285,0 -27.675,-9.793 -27.675,-21.88 0,-7.864 5.247,-14.757 13.127,-18.614 -0.58,-2.158 -2.096,-7.828 -2.399,-9.04 -0.376,-1.505 0.549,-1.484 1.16,-1.082 0.476,0.319 7.583,5.153 10.65,7.238 1.667,-0.246 3.381,-0.376 5.137,-0.376 15.285,0 27.675,9.793 27.675,21.874 C 27.675,-9.798 15.285,0 0,0"
             style="fill:#371d1e;fill-opacity:1;fill-rule:nonzero;stroke:none"
             id="path20" /></g></g></g></g></svg>
