<?xml version="1.0" encoding="UTF-8" standalone="no"?>
<svg
   xmlns:dc="http://purl.org/dc/elements/1.1/"
   xmlns:cc="http://creativecommons.org/ns#"
   xmlns:rdf="http://www.w3.org/1999/02/22-rdf-syntax-ns#"
   xmlns:svg="http://www.w3.org/2000/svg"
   xmlns="http://www.w3.org/2000/svg"
   viewBox="0 0 266.66666 266.66666"
   height="266.66666"
   width="266.66666"
   xml:space="preserve"
   id="svg2"
   version="1.1"><metadata
     id="metadata8"><rdf:RDF><cc:Work
         rdf:about=""><dc:format>image/svg+xml</dc:format><dc:type
           rdf:resource="http://purl.org/dc/dcmitype/StillImage" /></cc:Work></rdf:RDF></metadata><defs
     id="defs6"><clipPath
       id="clipPath18"
       clipPathUnits="userSpaceOnUse"><path
         id="path16"
         d="M 0,200 H 200 V 0 H 0 Z" /></clipPath></defs><g
     transform="matrix(1.3333333,0,0,-1.3333333,0,266.66667)"
     id="g10"><g
       id="g12"><g
         clip-path="url(#clipPath18)"
         id="g14"><g
           transform="translate(157.3003,138.2505)"
           id="g20"><path
             id="path22"
             style="fill:#ffffff;fill-opacity:1;fill-rule:nonzero;stroke:none"
             d="m 0,0 c -1.402,5.3 -6.165,8.61 -11.191,8.609 -1.889,0 -3.816,-0.468 -5.615,-1.473 -8.99,-5.027 -16.095,-12.124 -20.571,-20.196 3.115,-6.622 5.127,-13.979 5.751,-21.679 0.015,-0.194 0.038,-0.421 0.066,-0.669 0.019,-0.173 0.043,-0.399 0.071,-0.674 0.002,-0.025 0.006,-0.048 0.008,-0.073 5.175,9.49 13.96,17.652 25.18,22.73 C -1.202,-11.117 1.431,-5.411 0,0" /></g><g
           transform="translate(163.974,91.9775)"
           id="g24"><path
             id="path26"
             style="fill:#ffffff;fill-opacity:1;fill-rule:nonzero;stroke:none"
             d="m 0,0 c 4.815,0 -3.242,4.021 -6.442,8.53 -2.818,3.971 8.353,10.535 5.136,10.536 -0.598,0 -1.692,-0.227 -3.465,-0.738 -2.323,-0.671 -5.251,-2.046 -8.438,-3.808 -0.428,-0.236 -0.891,-0.35 -1.348,-0.35 -0.896,0 -1.769,0.435 -2.3,1.23 -0.894,1.339 -2.005,2.773 -3.541,3.984 -0.892,0.703 -1.486,1.014 -1.858,1.014 -1.394,0 0.317,-4.357 1.06,-8.762 0.181,-1.07 -0.317,-2.138 -1.225,-2.733 -5.249,-3.435 -10.336,-7.088 -13.98,-9.778 0.249,-1.12 0.515,-2.209 0.8,-3.267 5.865,2.509 13.497,6.129 15.471,6.293 0.04,0.003 0.08,0.005 0.119,0.005 3.035,0 0.953,-10.091 3.468,-11.702 0.202,-0.129 0.395,-0.19 0.578,-0.19 2.018,0 2.935,7.348 3.979,10.899 0.332,1.129 0.896,1.535 1.683,1.535 1.915,0 5.152,-2.405 9.585,-2.674 C -0.453,0.008 -0.213,0 0,0" /></g><g
           transform="translate(38.3388,119.2419)"
           id="g28"><path
             id="path30"
             style="fill:#ffffff;fill-opacity:1;fill-rule:nonzero;stroke:none"
             d="m 0,0 c -2.451,-6.436 -3.811,-13.584 -3.811,-21.112 0,-28.34 19.33,-44.99 43.181,-44.99 11.216,0 21.433,3.686 29.109,10.535 1.135,1.013 2.561,1.526 3.982,1.526 1.408,0 2.811,-0.505 3.919,-1.528 6.151,-5.68 13.553,-9.373 21.599,-10.311 0.167,-0.019 0.333,-0.029 0.498,-0.029 2.115,0 4.005,1.531 4.552,3.72 0.47,1.909 0.066,4.291 -1.65,5.139 -16.372,8.091 -18.547,36.517 -18.946,40.095 -0.035,0.305 -0.062,0.583 -0.082,0.821 -1.489,18.381 -11.136,33.928 -24.593,41.462 -2.269,1.271 -4.599,1.874 -6.805,1.874 -5.354,0 -9.987,-3.551 -11.309,-9.725 -1.032,-4.821 0.903,-9.694 4.795,-12.451 8.641,-6.123 14.431,-17.338 14.431,-30.148 0,-1.36 -0.071,-2.69 -0.201,-3.97 -1.29,-13.01 -8.95,-21.83 -19.299,-25.22 -3.13,-1.03 -6.5,-1.56 -10.021,-1.56 -16.3,0 -28.026,11.834 -28.026,31.204 0,8.251 0.918,15.384 4.929,21.369 C 7.274,-1.774 7.039,0.33 5.615,1.487 4.924,2.048 4.125,2.306 3.344,2.306 1.918,2.306 0.551,1.446 0,0" /></g></g></g></g></svg>